<?xml version="1.0" standalone="no"?>
<!DOCTYPE svg PUBLIC "-//W3C//DTD SVG 20010904//EN"
 "http://www.w3.org/TR/2001/REC-SVG-20010904/DTD/svg10.dtd">
<svg version="1.0" xmlns="http://www.w3.org/2000/svg"
 width="24.000000pt" height="24.000000pt" viewBox="0 0 24.000000 24.000000"
 preserveAspectRatio="xMidYMid meet">

<g transform="translate(0.000000,24.000000) scale(0.100000,-0.100000)"
fill="#000000" stroke="none">
<path d="M60 195 c0 -8 -7 -15 -15 -15 -19 0 -19 -20 1 -48 14 -20 14 -22 0
-22 -20 0 -20 -11 2 -54 16 -34 19 -36 72 -36 53 0 56 2 73 36 21 43 21 54 1
54 -14 0 -14 2 0 22 20 28 20 48 1 48 -8 0 -15 7 -15 15 0 12 -13 15 -60 15
-47 0 -60 -3 -60 -15z m100 -20 c0 -8 8 -15 18 -15 16 -1 16 -1 0 -14 -10 -7
-18 -23 -18 -35 0 -13 6 -21 18 -21 16 -1 16 -1 0 -14 -10 -7 -18 -18 -18 -25
0 -6 -17 -11 -40 -11 -23 0 -40 5 -40 11 0 7 -8 18 -17 25 -17 13 -17 13 0 14
11 0 17 8 17 21 0 12 -8 28 -17 35 -17 13 -17 13 0 14 9 0 17 7 17 15 0 11 11
15 40 15 29 0 40 -4 40 -15z"/>
<path d="M104 159 c-10 -17 13 -36 27 -22 12 12 4 33 -11 33 -5 0 -12 -5 -16
-11z"/>
<path d="M104 89 c-10 -17 13 -36 27 -22 12 12 4 33 -11 33 -5 0 -12 -5 -16
-11z"/>
</g>
</svg>
