<?xml version="1.0" standalone="no"?>
<!DOCTYPE svg PUBLIC "-//W3C//DTD SVG 20010904//EN"
 "http://www.w3.org/TR/2001/REC-SVG-20010904/DTD/svg10.dtd">
<svg version="1.0" xmlns="http://www.w3.org/2000/svg"
 width="512.000000pt" height="512.000000pt" viewBox="0 0 512.000000 512.000000"
 preserveAspectRatio="xMidYMid meet">

<g transform="translate(0.000000,512.000000) scale(0.100000,-0.100000)"
fill="#000000" stroke="none">
<path d="M573 4486 c-152 -37 -299 -157 -366 -296 -52 -111 -60 -160 -55 -360
4 -160 7 -181 31 -243 55 -141 159 -249 301 -312 l54 -24 -5 117 c-18 385 92
741 318 1031 l78 101 -152 -1 c-85 0 -175 -6 -204 -13z"/>
<path d="M4224 4458 c115 -135 230 -338 285 -505 59 -177 88 -413 75 -606 l-6
-98 58 26 c144 63 245 168 301 312 25 63 27 82 31 248 4 202 -5 260 -60 369
-45 89 -154 194 -248 239 -101 47 -155 57 -327 57 l-146 0 37 -42z"/>
<path d="M1255 4276 c-153 -35 -278 -132 -345 -270 -33 -66 -43 -98 -51 -176
-15 -129 -5 -313 22 -393 54 -164 194 -292 360 -332 81 -19 594 -22 666 -4 58
15 117 70 132 124 14 53 15 571 0 651 -33 179 -176 334 -359 388 -78 23 -345
31 -425 12z m299 -221 c113 -30 204 -106 254 -213 24 -50 27 -70 27 -157 0
-93 -2 -105 -33 -167 -143 -291 -552 -284 -691 11 -23 49 -26 69 -26 156 0 87
3 107 26 156 49 104 143 184 249 213 72 19 123 19 194 1z"/>
<path d="M1365 3934 c-58 -20 -106 -64 -140 -125 -24 -45 -29 -65 -29 -124 0
-59 5 -79 29 -124 35 -63 82 -105 144 -126 177 -60 355 65 355 250 0 186 -182
312 -359 249z"/>
<path d="M3439 4266 c-175 -49 -326 -213 -358 -390 -15 -80 -14 -598 0 -651
15 -54 74 -109 132 -124 57 -14 524 -15 622 -1 190 28 355 172 406 358 22 78
27 344 8 434 -36 175 -182 328 -354 373 -75 19 -387 20 -456 1z m363 -226 c80
-30 159 -104 200 -188 31 -63 33 -73 33 -172 0 -98 -2 -109 -32 -166 -40 -78
-125 -155 -201 -185 -80 -31 -204 -31 -284 0 -80 31 -159 106 -200 189 -31 62
-33 74 -33 167 0 87 3 107 26 156 88 188 296 272 491 199z"/>
<path d="M3573 3937 c-151 -56 -220 -226 -149 -370 121 -248 498 -162 500 113
1 117 -68 219 -173 255 -52 18 -132 18 -178 2z"/>
<path d="M2315 3256 c-202 -49 -344 -260 -307 -456 32 -175 157 -306 325 -340
31 -6 57 -15 57 -20 0 -5 -21 -26 -46 -49 -97 -85 -214 -116 -329 -88 -162 40
-265 159 -286 329 -13 101 -55 141 -125 118 -49 -16 -64 -44 -64 -115 0 -239
193 -469 439 -521 188 -40 368 14 509 152 l72 71 73 -71 c140 -138 320 -192
508 -152 246 53 439 282 439 523 0 69 -16 97 -64 113 -70 23 -112 -17 -125
-118 -21 -170 -124 -289 -286 -329 -115 -28 -232 3 -329 88 -25 23 -46 46 -46
53 0 8 20 16 52 19 114 14 236 106 293 222 28 56 30 68 30 175 0 107 -2 119
-29 174 -60 121 -173 204 -307 225 -87 15 -392 12 -454 -3z"/>
</g>
</svg>
